<svg xmlns="http://www.w3.org/2000/svg" version="1.1" xmlns:xlink="http://www.w3.org/1999/xlink" xmlns:svgjs="http://svgjs.dev/svgjs" width="750" height="515" viewBox="0 0 344.3692932128906 312" class="svg-animations " style="background:  rgb(24 24 27)"><svg viewBox="0 0 134.18385314941406 135" width="75" height="75" x="28.69744110107422" y="118.5" style="fill: rgb(250, 250, 250);"><svg width="135" height="130" viewBox="0 0 135 130" xmlns="http://www.w3.org/2000/svg">
<path d="M2.78934 39.3011L8.94518 41.0597L12.7514 46.2179C13.4454 47.1572 14.514 47.6546 15.5971 47.6546C16.3266 47.6546 17.0628 47.4303 17.6921 46.9646C19.2633 45.8049 19.5984 43.5938 18.4387 42.0239L15.4216 37.9316L21.8148 28.7244L27.2435 36.5726C27.9295 37.5633 29.0312 38.0963 30.1538 38.0963C30.8465 38.0963 31.547 37.8932 32.1591 37.4683C33.7633 36.3588 34.167 34.157 33.0576 32.5527L26.1195 22.5251L30.5708 16.1136C31.683 14.5107 31.2885 12.3073 29.683 11.1965C28.0761 10.0831 25.8767 10.4815 24.7659 12.0844L20.3096 18.5027L8.49674 15.5119C6.6102 15.0303 4.68544 16.1794 4.20518 18.0686C3.7276 19.9604 4.87274 21.8826 6.76323 22.3602L16.0032 24.7005L9.61402 33.9051L4.72738 32.5106C2.8448 31.9723 0.897507 33.0607 0.359163 34.9381C-0.175129 36.8088 0.91203 38.7655 2.78934 39.3011Z"></path>
<path d="M27.8254 64.9519C27.8254 87.8568 46.4614 106.493 69.3664 106.493C92.2754 106.493 110.914 87.8568 110.914 64.9519C110.914 42.0506 92.2754 23.4176 69.3664 23.4176C46.4614 23.4163 27.8254 42.0483 27.8254 64.9519ZM69.4508 30.4897C71.9007 34.1703 73.8926 38.5004 75.4033 43.2469C73.2516 43.4276 71.0722 43.5424 68.8611 43.5424C66.5392 43.5424 64.2477 43.4276 61.9903 43.2284C63.4956 38.5224 65.472 34.2245 67.8952 30.5608C68.3873 30.5397 68.8715 30.4856 69.3688 30.4856C69.3965 30.4856 69.4244 30.4897 69.4508 30.4897ZM69.3677 99.4275C68.8769 99.4275 68.3993 99.376 67.9152 99.3549C65.5234 95.7429 63.555 91.5449 62.0602 86.9288C64.2964 86.7335 66.5642 86.6214 68.8612 86.6214C71.0498 86.6214 73.2054 86.7362 75.3335 86.9129C73.8282 91.5659 71.8481 95.7943 69.4323 99.4262C69.4111 99.4236 69.3914 99.4275 69.3677 99.4275ZM51.7476 68.4869C51.9283 72.7812 52.4125 76.996 53.2278 81.0383C48.9585 81.8655 44.8757 83.0476 41.0404 84.5464C37.8082 79.8894 35.6829 74.4117 35.076 68.4842L51.7475 68.4855L51.7476 68.4869ZM78.5736 68.4869C78.3928 72.4275 77.9482 76.2892 77.1936 79.9657C74.4628 79.6953 71.6805 79.5515 68.8611 79.5515C65.9323 79.5515 63.0393 79.7137 60.199 80.0066C59.4404 76.3179 58.9919 72.4421 58.8111 68.4869L78.5736 68.4869ZM58.8085 61.4182C58.9853 57.5593 59.4272 53.7743 60.1621 50.1518C63.0156 50.4486 65.9207 50.6096 68.8627 50.6096C71.6938 50.6096 74.4907 50.4658 77.2361 50.1914C77.9657 53.7997 78.3997 57.5738 78.5791 61.4182L58.8085 61.4182ZM54.959 87.9051C56.021 91.405 57.3324 94.7074 58.8639 97.777C54.0276 96.2269 49.6752 93.6189 46.0274 90.2493C48.8757 89.2783 51.8587 88.4867 54.9587 87.905L54.959 87.9051ZM82.4473 87.855C85.9263 88.4948 89.2665 89.38 92.4314 90.5067C88.4472 94.1042 83.6331 96.7811 78.298 98.2137C79.9325 95.0066 81.331 91.5422 82.447 87.8548L82.4473 87.855ZM84.169 80.9909C84.9751 76.9631 85.4579 72.7665 85.6387 68.4871H103.67C103.052 74.5453 100.834 80.1297 97.4792 84.8498C93.317 83.1625 88.8432 81.8802 84.169 80.9909ZM85.64 61.4184C85.4632 57.2349 85.0002 53.1176 84.2165 49.1597C88.9275 48.2613 93.4275 46.9566 97.6137 45.2414C100.893 49.9233 103.057 55.4392 103.668 61.417L85.64 61.4184ZM82.4988 42.2984C81.3709 38.5225 79.9553 34.9699 78.2904 31.6993C83.7126 33.1545 88.603 35.8933 92.624 39.5806C89.4208 40.7376 86.0305 41.6453 82.4988 42.2984ZM54.9078 42.2482C51.7535 41.6519 48.7192 40.8432 45.8273 39.8432C49.5187 36.3788 53.9551 33.7033 58.8894 32.1244C57.3221 35.2668 55.9856 38.6544 54.9078 42.2482ZM53.1757 49.115C52.3854 53.0887 51.9197 57.2206 51.7442 61.4213H35.0742C35.6704 55.5809 37.7391 50.1731 40.8923 45.561C44.7552 47.0808 48.8736 48.2761 53.1757 49.115Z"></path>
<path d="M47.7279 11.1681L45.0881 4.61274C43.0115 5.44785 40.9495 6.40825 38.9549 7.46367L42.2636 13.709C44.0406 12.7657 45.8781 11.9122 47.7279 11.1681Z"></path>
<path d="M127.341 64.9654C127.341 65.9324 127.319 66.8968 127.27 67.8519L134.328 68.2055C134.379 67.1316 134.407 66.0498 134.407 64.9654C134.407 61.4337 134.121 57.8929 133.559 54.4389L126.586 55.5735C127.088 58.654 127.341 61.8123 127.341 64.9654Z"></path>
<path d="M125.031 48.7171L131.815 46.7408C130.529 42.324 128.762 38.0324 126.566 33.9823L120.356 37.3531C122.311 40.9587 123.886 44.7819 125.031 48.7171Z"></path>
<path d="M133.468 76.043L126.501 74.8464C125.807 78.8924 124.674 82.8716 123.141 86.6697L129.692 89.3148C131.416 85.055 132.687 80.5878 133.468 76.043Z"></path>
<path d="M113.049 103.082L118.372 107.73C121.402 104.261 124.068 100.463 126.297 96.4419L120.113 93.017C118.128 96.6014 115.75 99.9868 113.049 103.082Z"></path>
<path d="M112.829 113.349L108.105 108.094C105.049 110.839 101.7 113.265 98.1458 115.3L101.657 121.433C105.642 119.147 109.402 116.429 112.829 113.348L112.829 113.349Z"></path>
<path d="M116.632 31.3847L122.389 27.2884C119.73 23.5456 116.653 20.0707 113.253 16.9612L108.483 22.1761C111.517 24.9492 114.259 28.0469 116.632 31.3847Z"></path>
<path d="M81.3727 128.895C85.899 128.05 90.3449 126.716 94.5865 124.932L91.8477 118.418C88.0691 120.011 84.1075 121.199 80.0784 121.95L81.3727 128.895Z"></path>
<path d="M87.6748 2.53569C83.2684 1.24545 78.7026 0.422232 74.101 0.0910859L73.5944 7.14123C77.6972 7.43675 81.7658 8.16763 85.6906 9.3167L87.6748 2.53569Z"></path>
<path d="M13.9683 82.0816C12.7611 78.1686 11.9709 74.1132 11.6173 70.0182L4.57767 70.6224C4.97082 75.2162 5.86 79.7716 7.21751 84.1634L13.9683 82.0816Z"></path>
<path d="M32.4557 118.516L36.4716 112.698C33.097 110.368 29.9585 107.669 27.1486 104.682L22.0009 109.525C25.1499 112.876 28.6694 115.9 32.4557 118.516Z"></path>
<path d="M22.6446 99.2721C20.2106 95.9674 18.1288 92.3949 16.4506 88.6586L10.0033 91.5544C11.8846 95.7483 14.2222 99.7575 16.9531 103.463L22.6446 99.2721Z"></path>
<path d="M107.121 11.9955C103.37 9.31612 99.3272 7.0363 95.1083 5.21458L92.3061 11.7027C96.0702 13.3254 99.6704 15.3583 103.012 17.7451L107.121 11.9955Z"></path>
<path d="M66.5564 7.05791L66.2161 0C61.6077 0.222957 57.0207 0.932714 52.5842 2.11609L54.4021 8.94334C58.356 7.88924 62.4456 7.25316 66.5564 7.05791Z"></path>
<path d="M73.0983 122.815C69.0246 123.073 64.8411 122.902 60.8066 122.306L59.7709 129.296C62.9253 129.763 66.1561 130 69.3754 130C70.7764 129.997 72.1643 129.954 73.5403 129.869L73.0983 122.815Z"></path>
<path d="M42.4931 116.338L39.2134 122.595C43.2925 124.736 47.6118 126.442 52.0472 127.662L53.9258 120.851C49.976 119.762 46.1304 118.244 42.4931 116.338Z"></path>
<path d="M4.97447 55.7892C4.66312 58.0188 4.46128 60.2851 4.37817 62.5229L11.4401 62.7828C11.5127 60.7854 11.6921 58.7618 11.9718 56.7722L4.97447 55.7892Z"></path>
</svg></svg><text fill="#fafafa" font-family="Libre Baskerville" font-size="34px" x="113.69744110107422" y="163.8640765773439"><tspan dy="0" x="113.69744110107422">Banco_BR</tspan></text><text fill="#6d6d6d" font-family="Jost" font-size="20px" x="209.6846466064453" y="180.9514560699463"><tspan dy="0" x="209.6846466064453"></tspan></text><defs><style type="text/css">

      </style></defs></svg>